<?xml version='1.0' encoding='UTF-8' standalone='no'?>
<!-- Created with Fritzing (http://www.fritzing.org/) -->
<svg xmlns:svg='http://www.w3.org/2000/svg' xmlns='http://www.w3.org/2000/svg' version='1.2' baseProfile='tiny' x='0in' y='0in' width='1.8in' height='2.90811in' viewBox='0 0 129.6 209.384' >
<g partID='66410'><g transform='translate(83.7,130.444)' ><g transform='matrix(1,0,0,1,0,0)'  ><g id="schematic">
<g>
<path d="M13.5,14.966L9.9,14.966c-0.193,0,-0.35,-0.156,-0.35,-0.35s0.156,-0.35,0.35,-0.35L13.5,14.266c0.193,0,0.35,0.156,0.35,0.35S13.694,14.966,13.5,14.966z"/>
</g>
<g>
<path d="M9.9,14.966L6.3,14.966c-0.193,0,-0.35,-0.156,-0.35,-0.35s0.157,-0.35,0.35,-0.35l3.6,0c0.193,0,0.35,0.156,0.35,0.35S10.093,14.966,9.9,14.966z"/>
</g>
<g>
<polygon points="9.9,14.616,6.3,7.416,9.9,7.416,13.5,7.416" fill="#FFFFFF"/>
<path d="M9.9,15.398L5.734,7.066l8.333,0L9.9,15.398zM6.866,7.766L9.9,13.834l3.034,-6.068L6.866,7.766z"/>
</g>
<g>
<path d="M9.9,14.841c-0.124,0,-0.225,-0.101,-0.225,-0.225l0,-7.2c0,-0.124,0.101,-0.225,0.225,-0.225s0.225,0.101,0.225,0.225l0,7.2C10.124,14.74,10.024,14.841,9.9,14.841z"/>
</g>
<g>
<path d="M1.8,12.141c-0.058,0,-0.115,-0.021,-0.159,-0.065c-0.088,-0.088,-0.088,-0.23,0,-0.318l2.34,-2.341c0.088,-0.088,0.23,-0.088,0.318,0s0.088,0.23,0,0.318l-2.34,2.341C1.915,12.12,1.858,12.141,1.8,12.141z"/>
</g>
<g>
<path d="M2.16,15.381c-0.058,0,-0.115,-0.021,-0.159,-0.065c-0.088,-0.088,-0.088,-0.23,0,-0.318l2.34,-2.34c0.088,-0.088,0.23,-0.088,0.318,0s0.088,0.23,0,0.318l-2.34,2.34C2.276,15.359,2.218,15.381,2.16,15.381z"/>
</g>
<g id="connector0pin">
<path d="M9.9,22.166c-0.193,0,-0.35,-0.156,-0.35,-0.35l0,-7.2c0,-0.193,0.156,-0.35,0.35,-0.35s0.35,0.156,0.35,0.35l0,7.2C10.249,22.01,10.093,22.166,9.9,22.166z" fill="#787878"/>
</g>
<g id="connector0terminal">
<rect width="0.001" x="9.9" y="21.816" fill="none" height="0.001"/>
</g>
<g transform="matrix(1, 0, 0, 1, 3.429, 6.4262)">
<g>
<g transform="rotate(270)">
<g>
<g enable-background="new    ">
<path d="M-11.647,5.54l-0.891,0L-12.538,5.388l0.342,-0.372c0.049,-0.053,0.093,-0.101,0.131,-0.145s0.071,-0.086,0.099,-0.128c0.026,-0.042,0.047,-0.084,0.062,-0.125c0.015,-0.043,0.021,-0.088,0.021,-0.138c0,-0.038,-0.005,-0.072,-0.017,-0.102s-0.027,-0.054,-0.047,-0.075c-0.021,-0.02,-0.045,-0.035,-0.073,-0.046s-0.06,-0.016,-0.094,-0.016c-0.062,0,-0.118,0.013,-0.167,0.038c-0.051,0.024,-0.098,0.057,-0.143,0.096l-0.1,-0.116c0.025,-0.023,0.055,-0.046,0.084,-0.065c0.029,-0.021,0.063,-0.039,0.097,-0.054s0.071,-0.026,0.109,-0.036c0.038,-0.008,0.079,-0.013,0.121,-0.013c0.063,0,0.119,0.009,0.169,0.026c0.051,0.018,0.094,0.043,0.129,0.076c0.035,0.032,0.063,0.072,0.082,0.119c0.019,0.048,0.028,0.101,0.028,0.16c0,0.056,-0.009,0.108,-0.026,0.158c-0.017,0.05,-0.041,0.1,-0.07,0.148c-0.031,0.048,-0.066,0.097,-0.109,0.146c-0.041,0.049,-0.087,0.1,-0.136,0.152L-12.32,5.37l0,0.008l0.673,0L-11.647,5.54z" fill="#787878"/>
</g>
</g>
</g>
</g>
</g>
<g id="connector1pin">
<path d="M9.9,7.766c-0.193,0,-0.35,-0.157,-0.35,-0.35l0,-7.2c0,-0.193,0.156,-0.35,0.35,-0.35s0.35,0.157,0.35,0.35l0,7.2C10.249,7.609,10.093,7.766,9.9,7.766z" fill="#787878"/>
</g>
<g id="connector1terminal">
<polygon points="9.9,0.216,9.901,0.216,9.901,0.216" fill="none"/>
</g>
<g transform="matrix(1, 0, 0, 1, 3.429, 1.3462)">
<g>
<g transform="rotate(270)">
<g>
<g enable-background="new    ">
<path d="M-2.616,5.54l-0.172,0L-2.788,4.648c0,-0.028,0,-0.058,0,-0.09s0.001,-0.063,0.002,-0.095c0.001,-0.032,0.002,-0.063,0.003,-0.092c0.001,-0.028,0.002,-0.054,0.002,-0.076c-0.011,0.012,-0.021,0.021,-0.029,0.03s-0.017,0.017,-0.026,0.024s-0.018,0.016,-0.028,0.025c-0.01,0.008,-0.021,0.019,-0.035,0.03l-0.145,0.118l-0.094,-0.12l0.374,-0.292l0.146,0L-2.618,5.54z" fill="#787878"/>
</g>
</g>
</g>
</g>
</g>
<g>
<path d="M0.18,13.536l1.08,-2.521l1.44,1.438L0.18,13.536z"/>
</g>
<g>
<path d="M0.54,16.776l1.08,-2.521l1.438,1.438L0.54,16.776z"/>
</g>
</g>
</g></g></g><g partID='63530'><g transform='translate(14.0405,66.2208)' ><g transform='matrix(0,-1,1,0,0,0)'  ><g id="schematic" xmlns="http://www.w3.org/2000/svg">
<text font-family="DroidSans" gorn="0.3.0" font-size="3.5" x="49.3671" y="8.87199" id="text26" fill="#787878" xmlns="http://www.w3.org/2000/svg" stroke-width="0.72">3V3</text>
<text font-family="DroidSans" gorn="0.3.1" font-size="3.5" x="51.4511" y="15.9963" id="text48" fill="#787878" xmlns="http://www.w3.org/2000/svg" stroke-width="0.72">22</text>
<text font-family="DroidSans" gorn="0.3.2" font-size="3.5" x="51.2667" y="23.1416" id="text70" fill="#787878" xmlns="http://www.w3.org/2000/svg" stroke-width="0.72">19</text>
<text font-family="DroidSans" gorn="0.3.3" font-size="3.5" x="51.405" y="30.3792" id="text92" fill="#787878" xmlns="http://www.w3.org/2000/svg" stroke-width="0.72">23</text>
<text font-family="DroidSans" gorn="0.3.4" font-size="3.5" x="51.3589" y="37.6619" id="text114" fill="#787878" xmlns="http://www.w3.org/2000/svg" stroke-width="0.72">18</text>
<text font-family="DroidSans" gorn="0.3.5" font-size="3.5" x="53.2884" y="44.8053" id="text136" fill="#787878" xmlns="http://www.w3.org/2000/svg" stroke-width="0.72">5</text>
<text font-family="DroidSans" gorn="0.3.6" font-size="3.5" x="51.3191" y="51.9515" id="text158" fill="#787878" xmlns="http://www.w3.org/2000/svg" stroke-width="0.72">17</text>
<text font-family="DroidSans" gorn="0.3.7" font-size="3.5" x="51.2583" y="59.0716" id="text180" fill="#787878" xmlns="http://www.w3.org/2000/svg" stroke-width="0.72">16</text>
<text font-family="DroidSans" gorn="0.3.8" font-size="3.5" x="53.0189" y="66.4726" id="text202" fill="#787878" xmlns="http://www.w3.org/2000/svg" stroke-width="0.72">4</text>
<text font-family="DroidSans" gorn="0.3.9" font-size="3.5" x="53.2034" y="73.6622" id="text224" fill="#787878" xmlns="http://www.w3.org/2000/svg" stroke-width="0.72">0</text>
<text font-family="DroidSans" gorn="0.3.10" font-size="3.5" x="53.3417" y="80.8075" id="text246" fill="#787878" xmlns="http://www.w3.org/2000/svg" stroke-width="0.72">2</text>
<text font-family="DroidSans" gorn="0.3.11" font-size="3.5" x="51.363" y="88.0215" id="text268" fill="#787878" xmlns="http://www.w3.org/2000/svg" stroke-width="0.72">15</text>
<text font-family="DroidSans" gorn="0.3.12" font-size="3.5" x="51.3974" y="95.2364" id="text290" fill="#787878" xmlns="http://www.w3.org/2000/svg" stroke-width="0.72">13</text>
<text font-family="DroidSans" gorn="0.3.15" font-size="3.5" x="22.453" y="98.4522" id="text356" fill="#787878" xmlns="http://www.w3.org/2000/svg" stroke-width="0.72">BAT+</text>
<text font-family="DroidSans" gorn="0.3.17" font-size="3.5" x="9.58163" y="95.2614" id="text400" fill="#787878" xmlns="http://www.w3.org/2000/svg" stroke-width="0.72">GND</text>
<text font-family="DroidSans" gorn="0.3.18" font-size="3.5" x="9.44329" y="87.9757" id="text422" fill="#787878" xmlns="http://www.w3.org/2000/svg" stroke-width="0.72">12</text>
<text font-family="DroidSans" gorn="0.3.19" font-size="3.5" x="9.39718" y="80.7814" id="text444" fill="#787878" xmlns="http://www.w3.org/2000/svg" stroke-width="0.72">14</text>
<text font-family="DroidSans" gorn="0.3.20" font-size="3.5" x="9.62774" y="73.6331" id="text466" fill="#787878" xmlns="http://www.w3.org/2000/svg" stroke-width="0.72">27</text>
<text font-family="DroidSans" gorn="0.3.21" font-size="3.5" x="9.67385" y="66.4868" id="text488" fill="#787878" xmlns="http://www.w3.org/2000/svg" stroke-width="0.72">26</text>
<text font-family="DroidSans" gorn="0.3.22" font-size="3.5" x="9.62774" y="59.2463" id="text510" fill="#787878" xmlns="http://www.w3.org/2000/svg" stroke-width="0.72">25</text>
<text font-family="DroidSans" gorn="0.3.23" font-size="3.5" x="9.62774" y="52.0972" id="text532" fill="#787878" xmlns="http://www.w3.org/2000/svg" stroke-width="0.72">33</text>
<text font-family="DroidSans" gorn="0.3.24" font-size="3.5" x="9.58163" y="44.8576" id="text554" fill="#787878" xmlns="http://www.w3.org/2000/svg" stroke-width="0.72">32</text>
<text font-family="DroidSans" gorn="0.3.25" font-size="3.5" x="9.62774" y="37.6645" id="text576" fill="#787878" xmlns="http://www.w3.org/2000/svg" stroke-width="0.72">35</text>
<text font-family="DroidSans" gorn="0.3.26" font-size="3.5" x="9.62774" y="30.4248" id="text598" fill="#787878" xmlns="http://www.w3.org/2000/svg" stroke-width="0.72">34</text>
<text font-family="DroidSans" gorn="0.3.27" font-size="3.5" x="9.53552" y="23.2757" id="text620" fill="#787878" xmlns="http://www.w3.org/2000/svg" stroke-width="0.72">EN</text>
<text font-family="DroidSans" gorn="0.3.28" font-size="3.5" x="9.81219" y="16.0824" id="text642" fill="#787878" xmlns="http://www.w3.org/2000/svg" stroke-width="0.72">VN</text>
<text font-family="DroidSans" gorn="0.3.29" font-size="3.5" x="9.90531" y="8.80499" id="text664" fill="#787878" xmlns="http://www.w3.org/2000/svg" stroke-width="0.72">VP</text>
<rect gorn="0.3.30" stroke-miterlimit="10" width="50.4" stroke-linecap="round" x="7.56" stroke="#231f20" y="0.36" id="rect666" height="100.8" fill="none" xmlns="http://www.w3.org/2000/svg" stroke-width="0.72"/>
<line gorn="0.3.31" stroke-miterlimit="10" stroke-linecap="round" stroke="#787878" id="connector0pin" y1="7.54513" fill="none" xmlns="http://www.w3.org/2000/svg" y2="7.55996" x1="0.365127" stroke-width="0.72" stroke-linejoin="round" x2="7.19487"/>
<g gorn="0.3.32" width="0.72" x="9.8036e-09" y="7.20001" id="connector0terminal" height="0.72" fill="none" xmlns="http://www.w3.org/2000/svg" stroke-width="0.72"/>
<line gorn="0.3.33" stroke-miterlimit="10" stroke-linecap="round" stroke="#787878" id="connector1pin" y1="14.744" fill="none" xmlns="http://www.w3.org/2000/svg" y2="14.76" x1="0.365127" stroke-width="0.72" stroke-linejoin="round" x2="7.19487"/>
<g gorn="0.3.34" width="0.72" x="6.40414e-10" y="14.4" id="connector1terminal" height="0.72" fill="none" xmlns="http://www.w3.org/2000/svg" stroke-width="0.72"/>
<line gorn="0.3.35" stroke-miterlimit="10" stroke-linecap="round" stroke="#787878" id="connector2pin" y1="21.944" fill="none" xmlns="http://www.w3.org/2000/svg" y2="21.96" x1="0.365127" stroke-width="0.72" stroke-linejoin="round" x2="7.19487"/>
<g gorn="0.3.36" width="0.72" x="9.8036e-09" y="21.6" id="connector2terminal" height="0.72" fill="none" xmlns="http://www.w3.org/2000/svg" stroke-width="0.72"/>
<line gorn="0.3.37" stroke-miterlimit="10" stroke-linecap="round" stroke="#787878" id="connector3pin" y1="29.144" fill="none" xmlns="http://www.w3.org/2000/svg" y2="29.16" x1="0.365127" stroke-width="0.72" stroke-linejoin="round" x2="7.19487"/>
<g gorn="0.3.38" width="0.72" x="9.8036e-09" y="28.8" id="connector3terminal" height="0.72" fill="none" xmlns="http://www.w3.org/2000/svg" stroke-width="0.72"/>
<line gorn="0.3.39" stroke-miterlimit="10" stroke-linecap="round" stroke="#787878" id="connector4pin" y1="36.344" fill="none" xmlns="http://www.w3.org/2000/svg" y2="36.36" x1="0.365127" stroke-width="0.72" stroke-linejoin="round" x2="7.19487"/>
<g gorn="0.3.40" width="0.72" x="9.8036e-09" y="36" id="connector4terminal" height="0.72" fill="none" xmlns="http://www.w3.org/2000/svg" stroke-width="0.72"/>
<line gorn="0.3.41" stroke-miterlimit="10" stroke-linecap="round" stroke="#787878" id="connector5pin" y1="43.5451" fill="none" xmlns="http://www.w3.org/2000/svg" y2="43.56" x1="0.365127" stroke-width="0.72" stroke-linejoin="round" x2="7.19487"/>
<g gorn="0.3.42" width="0.72" x="9.8036e-09" y="43.2" id="connector5terminal" height="0.72" fill="none" xmlns="http://www.w3.org/2000/svg" stroke-width="0.72"/>
<line gorn="0.3.43" stroke-miterlimit="10" stroke-linecap="round" stroke="#787878" id="connector6pin" y1="50.742" fill="none" xmlns="http://www.w3.org/2000/svg" y2="50.76" x1="0.365127" stroke-width="0.72" stroke-linejoin="round" x2="7.19487"/>
<g gorn="0.3.44" width="0.72" x="9.8036e-09" y="50.4" id="connector6terminal" height="0.72" fill="none" xmlns="http://www.w3.org/2000/svg" stroke-width="0.72"/>
<line gorn="0.3.45" stroke-miterlimit="10" stroke-linecap="round" stroke="#787878" id="connector7pin" y1="57.946" fill="none" xmlns="http://www.w3.org/2000/svg" y2="57.96" x1="0.365127" stroke-width="0.72" stroke-linejoin="round" x2="7.19487"/>
<g gorn="0.3.46" width="0.72" x="9.8036e-09" y="57.6" id="connector7terminal" height="0.72" fill="none" xmlns="http://www.w3.org/2000/svg" stroke-width="0.72"/>
<line gorn="0.3.47" stroke-miterlimit="10" stroke-linecap="round" stroke="#787878" id="connector8pin" y1="65.143" fill="none" xmlns="http://www.w3.org/2000/svg" y2="65.16" x1="0.365127" stroke-width="0.72" stroke-linejoin="round" x2="7.19487"/>
<g gorn="0.3.48" width="0.72" x="9.8036e-09" y="64.8" id="connector8terminal" height="0.72" fill="none" xmlns="http://www.w3.org/2000/svg" stroke-width="0.72"/>
<line gorn="0.3.49" stroke-miterlimit="10" stroke-linecap="round" stroke="#787878" id="connector9pin" y1="72.345" fill="none" xmlns="http://www.w3.org/2000/svg" y2="72.36" x1="0.365127" stroke-width="0.72" stroke-linejoin="round" x2="7.19487"/>
<g gorn="0.3.50" width="0.72" x="9.8036e-09" y="72" id="connector9terminal" height="0.72" fill="none" xmlns="http://www.w3.org/2000/svg" stroke-width="0.72"/>
<line gorn="0.3.51" stroke-miterlimit="10" stroke-linecap="round" stroke="#787878" id="connector10pin" y1="79.5461" fill="none" xmlns="http://www.w3.org/2000/svg" y2="79.56" x1="0.365127" stroke-width="0.72" stroke-linejoin="round" x2="7.19487"/>
<g gorn="0.3.52" width="0.72" x="9.8036e-09" y="79.2" id="connector10terminal" height="0.72" fill="none" xmlns="http://www.w3.org/2000/svg" stroke-width="0.72"/>
<line gorn="0.3.53" stroke-miterlimit="10" stroke-linecap="round" stroke="#787878" id="connector11pin" y1="86.7447" fill="none" xmlns="http://www.w3.org/2000/svg" y2="86.76" x1="0.365127" stroke-width="0.72" stroke-linejoin="round" x2="7.19487"/>
<g gorn="0.3.54" width="0.72" x="9.8036e-09" y="86.4" id="connector11terminal" height="0.72" fill="none" xmlns="http://www.w3.org/2000/svg" stroke-width="0.72"/>
<line gorn="0.3.55" stroke-miterlimit="10" stroke-linecap="round" stroke="#787878" id="connector12pin" y1="93.9429" fill="none" xmlns="http://www.w3.org/2000/svg" y2="93.96" x1="0.365127" stroke-width="0.72" stroke-linejoin="round" x2="7.19487"/>
<g gorn="0.3.56" width="0.72" x="9.8036e-09" y="93.6" id="connector12terminal" height="0.72" fill="none" xmlns="http://www.w3.org/2000/svg" stroke-width="0.72"/>
<line gorn="0.3.59" stroke-miterlimit="10" stroke-linecap="round" stroke="#787878" id="connector13pin" y1="101.525" fill="none" xmlns="http://www.w3.org/2000/svg" y2="108.355" x1="29.1639" stroke-width="0.72" stroke-linejoin="round" x2="29.164"/>
<g gorn="0.3.60" width="0.72" x="28.8" y="108" id="connector13terminal" height="0.72" fill="none" xmlns="http://www.w3.org/2000/svg" stroke-width="0.72"/>
<line gorn="0.3.61" stroke-miterlimit="10" stroke-linecap="round" stroke="#787878" id="connector14pin" y1="101.525" fill="none" xmlns="http://www.w3.org/2000/svg" y2="108.355" x1="36.3639" stroke-width="0.72" stroke-linejoin="round" x2="36.364"/>
<g gorn="0.3.62" width="0.72" x="36" y="108" id="connector14terminal" height="0.72" fill="none" xmlns="http://www.w3.org/2000/svg" stroke-width="0.72"/>
<line gorn="0.3.81" stroke-miterlimit="10" stroke-linecap="round" stroke="#787878" id="connector15pin" y1="93.9429" fill="none" xmlns="http://www.w3.org/2000/svg" y2="93.96" x1="58.3251" stroke-width="0.72" stroke-linejoin="round" x2="65.1549"/>
<g gorn="0.3.82" width="0.72" x="64.8" y="93.6" id="connector15terminal" height="0.72" fill="none" xmlns="http://www.w3.org/2000/svg" stroke-width="0.72"/>
<line gorn="0.3.83" stroke-miterlimit="10" stroke-linecap="round" stroke="#787878" id="connector16pin" y1="86.7459" fill="none" xmlns="http://www.w3.org/2000/svg" y2="86.76" x1="58.3262" stroke-width="0.72" stroke-linejoin="round" x2="65.1559"/>
<g gorn="0.3.84" width="0.72" x="64.8" y="86.4" id="connector16terminal" height="0.72" fill="none" xmlns="http://www.w3.org/2000/svg" stroke-width="0.72"/>
<line gorn="0.3.85" stroke-miterlimit="10" stroke-linecap="round" stroke="#787878" id="connector17pin" y1="79.5429" fill="none" xmlns="http://www.w3.org/2000/svg" y2="79.56" x1="58.3251" stroke-width="0.72" stroke-linejoin="round" x2="65.1549"/>
<g gorn="0.3.86" width="0.72" x="64.8" y="79.2" id="connector17terminal" height="0.72" fill="none" xmlns="http://www.w3.org/2000/svg" stroke-width="0.72"/>
<line gorn="0.3.87" stroke-miterlimit="10" stroke-linecap="round" stroke="#787878" id="connector18pin" y1="72.346" fill="none" xmlns="http://www.w3.org/2000/svg" y2="72.36" x1="58.3262" stroke-width="0.72" stroke-linejoin="round" x2="65.1559"/>
<g gorn="0.3.88" width="0.72" x="64.8" y="72" id="connector18terminal" height="0.72" fill="none" xmlns="http://www.w3.org/2000/svg" stroke-width="0.72"/>
<line gorn="0.3.89" stroke-miterlimit="10" stroke-linecap="round" stroke="#787878" id="connector19pin" y1="65.1459" fill="none" xmlns="http://www.w3.org/2000/svg" y2="65.16" x1="58.3262" stroke-width="0.72" stroke-linejoin="round" x2="65.1559"/>
<g gorn="0.3.90" width="0.72" x="64.8" y="64.8" id="connector19terminal" height="0.72" fill="none" xmlns="http://www.w3.org/2000/svg" stroke-width="0.72"/>
<line gorn="0.3.91" stroke-miterlimit="10" stroke-linecap="round" stroke="#787878" id="connector20pin" y1="57.944" fill="none" xmlns="http://www.w3.org/2000/svg" y2="57.96" x1="58.3262" stroke-width="0.72" stroke-linejoin="round" x2="65.1559"/>
<g gorn="0.3.92" width="0.72" x="64.8" y="57.6" id="connector20terminal" height="0.72" fill="none" xmlns="http://www.w3.org/2000/svg" stroke-width="0.72"/>
<line gorn="0.3.93" stroke-miterlimit="10" stroke-linecap="round" stroke="#787878" id="connector21pin" y1="50.744" fill="none" xmlns="http://www.w3.org/2000/svg" y2="50.76" x1="58.3262" stroke-width="0.72" stroke-linejoin="round" x2="65.1559"/>
<g gorn="0.3.94" width="0.72" x="64.8" y="50.4" id="connector21terminal" height="0.72" fill="none" xmlns="http://www.w3.org/2000/svg" stroke-width="0.72"/>
<line gorn="0.3.95" stroke-miterlimit="10" stroke-linecap="round" stroke="#787878" id="connector22pin" y1="43.544" fill="none" xmlns="http://www.w3.org/2000/svg" y2="43.56" x1="58.3262" stroke-width="0.72" stroke-linejoin="round" x2="65.1559"/>
<g gorn="0.3.96" width="0.72" x="64.8" y="43.2" id="connector22terminal" height="0.72" fill="none" xmlns="http://www.w3.org/2000/svg" stroke-width="0.72"/>
<line gorn="0.3.97" stroke-miterlimit="10" stroke-linecap="round" stroke="#787878" id="connector23pin" y1="36.345" fill="none" xmlns="http://www.w3.org/2000/svg" y2="36.36" x1="58.3262" stroke-width="0.72" stroke-linejoin="round" x2="65.1559"/>
<g gorn="0.3.98" width="0.72" x="64.8" y="36" id="connector23terminal" height="0.72" fill="none" xmlns="http://www.w3.org/2000/svg" stroke-width="0.72"/>
<line gorn="0.3.99" stroke-miterlimit="10" stroke-linecap="round" stroke="#787878" id="connector24pin" y1="29.1449" fill="none" xmlns="http://www.w3.org/2000/svg" y2="29.16" x1="58.3262" stroke-width="0.72" stroke-linejoin="round" x2="65.1559"/>
<g gorn="0.3.100" width="0.72" x="64.8" y="28.8" id="connector24terminal" height="0.72" fill="none" xmlns="http://www.w3.org/2000/svg" stroke-width="0.72"/>
<line gorn="0.3.101" stroke-miterlimit="10" stroke-linecap="round" stroke="#787878" id="connector25pin" y1="21.9439" fill="none" xmlns="http://www.w3.org/2000/svg" y2="21.96" x1="58.3262" stroke-width="0.72" stroke-linejoin="round" x2="65.1559"/>
<g gorn="0.3.102" width="0.72" x="64.8" y="21.6" id="connector25terminal" height="0.72" fill="none" xmlns="http://www.w3.org/2000/svg" stroke-width="0.72"/>
<line gorn="0.3.103" stroke-miterlimit="10" stroke-linecap="round" stroke="#787878" id="connector26pin" y1="14.744" fill="none" xmlns="http://www.w3.org/2000/svg" y2="14.76" x1="58.3262" stroke-width="0.72" stroke-linejoin="round" x2="65.1559"/>
<g gorn="0.3.104" width="0.72" x="64.8" y="14.4" id="connector26terminal" height="0.72" fill="none" xmlns="http://www.w3.org/2000/svg" stroke-width="0.72"/>
<line gorn="0.3.105" stroke-miterlimit="10" stroke-linecap="round" stroke="#787878" id="connector27pin" y1="7.54389" fill="none" xmlns="http://www.w3.org/2000/svg" y2="7.55996" x1="58.3262" stroke-width="0.72" stroke-linejoin="round" x2="65.1559"/>
<g gorn="0.3.106" width="0.72" x="64.8" y="7.20001" id="connector27terminal" height="0.72" fill="none" xmlns="http://www.w3.org/2000/svg" stroke-width="0.72"/>
<text font-family="DroidSans" gorn="0.3.107" font-size="4.25" x="24.6577" y="44.644" id="text718" xmlns="http://www.w3.org/2000/svg" stroke-width="0.72">LOLIN32      </text>
<text font-family="DroidSans" gorn="0.3.108" font-size="4.25" x="27.2829" y="50.2945" id="text740" xmlns="http://www.w3.org/2000/svg" stroke-width="0.72">Lite</text>
<text font-family="DroidSans" gorn="0.3.111" font-size="3.5" x="35.3795" y="98.4543" id="text3412" fill="#787878" xmlns="http://www.w3.org/2000/svg" stroke-width="0.72">BAT-</text>
</g>
</g></g></g><g partID='66510'><g transform='translate(62.1,130.444)' ><g id="schematic">
<g>
<path d="M13.5,14.966L9.9,14.966c-0.193,0,-0.35,-0.156,-0.35,-0.35s0.156,-0.35,0.35,-0.35L13.5,14.266c0.193,0,0.35,0.156,0.35,0.35S13.694,14.966,13.5,14.966z"/>
</g>
<g>
<path d="M9.9,14.966L6.3,14.966c-0.193,0,-0.35,-0.156,-0.35,-0.35s0.157,-0.35,0.35,-0.35l3.6,0c0.193,0,0.35,0.156,0.35,0.35S10.093,14.966,9.9,14.966z"/>
</g>
<g>
<polygon points="9.9,14.616,6.3,7.416,9.9,7.416,13.5,7.416" fill="#FFFFFF"/>
<path d="M9.9,15.398L5.734,7.066l8.333,0L9.9,15.398zM6.866,7.766L9.9,13.834l3.034,-6.068L6.866,7.766z"/>
</g>
<g>
<path d="M9.9,14.841c-0.124,0,-0.225,-0.101,-0.225,-0.225l0,-7.2c0,-0.124,0.101,-0.225,0.225,-0.225s0.225,0.101,0.225,0.225l0,7.2C10.124,14.74,10.024,14.841,9.9,14.841z"/>
</g>
<g>
<path d="M1.8,12.141c-0.058,0,-0.115,-0.021,-0.159,-0.065c-0.088,-0.088,-0.088,-0.23,0,-0.318l2.34,-2.341c0.088,-0.088,0.23,-0.088,0.318,0s0.088,0.23,0,0.318l-2.34,2.341C1.915,12.12,1.858,12.141,1.8,12.141z"/>
</g>
<g>
<path d="M2.16,15.381c-0.058,0,-0.115,-0.021,-0.159,-0.065c-0.088,-0.088,-0.088,-0.23,0,-0.318l2.34,-2.34c0.088,-0.088,0.23,-0.088,0.318,0s0.088,0.23,0,0.318l-2.34,2.34C2.276,15.359,2.218,15.381,2.16,15.381z"/>
</g>
<g id="connector0pin">
<path d="M9.9,22.166c-0.193,0,-0.35,-0.156,-0.35,-0.35l0,-7.2c0,-0.193,0.156,-0.35,0.35,-0.35s0.35,0.156,0.35,0.35l0,7.2C10.249,22.01,10.093,22.166,9.9,22.166z" fill="#787878"/>
</g>
<g id="connector0terminal">
<rect width="0.001" x="9.9" y="21.816" fill="none" height="0.001"/>
</g>
<g transform="matrix(1, 0, 0, 1, 3.429, 6.4262)">
<g>
<g transform="rotate(270)">
<g>
<g enable-background="new    ">
<path d="M-11.647,5.54l-0.891,0L-12.538,5.388l0.342,-0.372c0.049,-0.053,0.093,-0.101,0.131,-0.145s0.071,-0.086,0.099,-0.128c0.026,-0.042,0.047,-0.084,0.062,-0.125c0.015,-0.043,0.021,-0.088,0.021,-0.138c0,-0.038,-0.005,-0.072,-0.017,-0.102s-0.027,-0.054,-0.047,-0.075c-0.021,-0.02,-0.045,-0.035,-0.073,-0.046s-0.06,-0.016,-0.094,-0.016c-0.062,0,-0.118,0.013,-0.167,0.038c-0.051,0.024,-0.098,0.057,-0.143,0.096l-0.1,-0.116c0.025,-0.023,0.055,-0.046,0.084,-0.065c0.029,-0.021,0.063,-0.039,0.097,-0.054s0.071,-0.026,0.109,-0.036c0.038,-0.008,0.079,-0.013,0.121,-0.013c0.063,0,0.119,0.009,0.169,0.026c0.051,0.018,0.094,0.043,0.129,0.076c0.035,0.032,0.063,0.072,0.082,0.119c0.019,0.048,0.028,0.101,0.028,0.16c0,0.056,-0.009,0.108,-0.026,0.158c-0.017,0.05,-0.041,0.1,-0.07,0.148c-0.031,0.048,-0.066,0.097,-0.109,0.146c-0.041,0.049,-0.087,0.1,-0.136,0.152L-12.32,5.37l0,0.008l0.673,0L-11.647,5.54z" fill="#787878"/>
</g>
</g>
</g>
</g>
</g>
<g id="connector1pin">
<path d="M9.9,7.766c-0.193,0,-0.35,-0.157,-0.35,-0.35l0,-7.2c0,-0.193,0.156,-0.35,0.35,-0.35s0.35,0.157,0.35,0.35l0,7.2C10.249,7.609,10.093,7.766,9.9,7.766z" fill="#787878"/>
</g>
<g id="connector1terminal">
<polygon points="9.9,0.216,9.901,0.216,9.901,0.216" fill="none"/>
</g>
<g transform="matrix(1, 0, 0, 1, 3.429, 1.3462)">
<g>
<g transform="rotate(270)">
<g>
<g enable-background="new    ">
<path d="M-2.616,5.54l-0.172,0L-2.788,4.648c0,-0.028,0,-0.058,0,-0.09s0.001,-0.063,0.002,-0.095c0.001,-0.032,0.002,-0.063,0.003,-0.092c0.001,-0.028,0.002,-0.054,0.002,-0.076c-0.011,0.012,-0.021,0.021,-0.029,0.03s-0.017,0.017,-0.026,0.024s-0.018,0.016,-0.028,0.025c-0.01,0.008,-0.021,0.019,-0.035,0.03l-0.145,0.118l-0.094,-0.12l0.374,-0.292l0.146,0L-2.618,5.54z" fill="#787878"/>
</g>
</g>
</g>
</g>
</g>
<g>
<path d="M0.18,13.536l1.08,-2.521l1.44,1.438L0.18,13.536z"/>
</g>
<g>
<path d="M0.54,16.776l1.08,-2.521l1.438,1.438L0.54,16.776z"/>
</g>
</g>
</g></g><g partID='69560'><g transform='translate(75.0966,79.9106)' ><g transform='matrix(0,1,-1,0,0,0)'  ><g id="schematic" xmlns="http://www.w3.org/2000/svg">
<line stroke-linecap="round" stroke="#000000" class="other" y1="3.096" xmlns="http://www.w3.org/2000/svg" y2="0.216" x1="7.55002" stroke-width="0.432002" x2="8.63003"/>
<line stroke-linecap="round" stroke="#000000" class="other" y1="0.216" xmlns="http://www.w3.org/2000/svg" y2="5.976" x1="8.63003" stroke-width="0.432002" x2="10.43"/>
<line stroke-linecap="round" stroke="#000000" class="other" y1="5.976" xmlns="http://www.w3.org/2000/svg" y2="0.216" x1="10.43" stroke-width="0.432002" x2="12.23"/>
<line stroke-linecap="round" stroke="#000000" class="other" y1="0.216" xmlns="http://www.w3.org/2000/svg" y2="5.976" x1="12.23" stroke-width="0.432002" x2="14.03"/>
<line stroke-linecap="round" stroke="#000000" class="other" y1="5.976" xmlns="http://www.w3.org/2000/svg" y2="0.216" x1="14.03" stroke-width="0.432002" x2="15.8301"/>
<line stroke-linecap="round" stroke="#000000" class="other" y1="0.216" xmlns="http://www.w3.org/2000/svg" y2="5.976" x1="15.8301" stroke-width="0.432002" x2="17.6301"/>
<line stroke-linecap="round" stroke="#000000" class="other" y1="5.976" xmlns="http://www.w3.org/2000/svg" y2="0.216" x1="17.6301" stroke-width="0.432002" x2="19.4301"/>
<line stroke-linecap="round" stroke="#000000" class="other" y1="0.216" xmlns="http://www.w3.org/2000/svg" y2="5.976" x1="19.4301" stroke-width="0.432002" x2="21.2301"/>
<line stroke-linecap="round" stroke="#000000" class="other" y1="5.976" xmlns="http://www.w3.org/2000/svg" y2="3.096" x1="21.2301" stroke-width="0.432002" x2="21.9501"/>
<line stroke-linecap="round" stroke="#787878" id="connector1pin" class="pin" y1="3.096" xmlns="http://www.w3.org/2000/svg" y2="3.096" x1="29.1502" stroke-width="0.700001" connectorname="2" x2="21.9501"/>
<g width="0.000283466" x="29.1502" stroke="none" id="connector1terminal" y="3.096" class="terminal" height="0.000283465" fill="none" xmlns="http://www.w3.org/2000/svg" stroke-width="0"/>
<text font-family="'Droid Sans'" font-size="2.50001" stroke="none" x="25.5501" y="2.046" class="text" text-anchor="middle" fill="#8c8c8c" xmlns="http://www.w3.org/2000/svg" stroke-width="0">2</text>
<line stroke-linecap="round" stroke="#787878" id="connector0pin" class="pin" y1="3.096" xmlns="http://www.w3.org/2000/svg" y2="3.096" x1="0.350001" stroke-width="0.700001" connectorname="1" x2="7.55002"/>
<g width="0.000283466" x="0.350001" stroke="none" id="connector0terminal" y="3.096" class="terminal" height="0.000283465" fill="none" xmlns="http://www.w3.org/2000/svg" stroke-width="0"/>
<text font-family="'Droid Sans'" font-size="2.50001" stroke="none" x="3.95001" y="2.046" class="text" text-anchor="middle" fill="#8c8c8c" xmlns="http://www.w3.org/2000/svg" stroke-width="0">1</text>
</g>
</g></g></g><g partID='69380'><g transform='translate(24.6966,115.911)' ><g transform='matrix(0,1,-1,0,0,0)'  ><g id="schematic" xmlns="http://www.w3.org/2000/svg">
<line stroke-linecap="round" stroke="#000000" class="other" y1="3.096" xmlns="http://www.w3.org/2000/svg" y2="0.216" x1="7.55002" stroke-width="0.432002" x2="8.63003"/>
<line stroke-linecap="round" stroke="#000000" class="other" y1="0.216" xmlns="http://www.w3.org/2000/svg" y2="5.976" x1="8.63003" stroke-width="0.432002" x2="10.43"/>
<line stroke-linecap="round" stroke="#000000" class="other" y1="5.976" xmlns="http://www.w3.org/2000/svg" y2="0.216" x1="10.43" stroke-width="0.432002" x2="12.23"/>
<line stroke-linecap="round" stroke="#000000" class="other" y1="0.216" xmlns="http://www.w3.org/2000/svg" y2="5.976" x1="12.23" stroke-width="0.432002" x2="14.03"/>
<line stroke-linecap="round" stroke="#000000" class="other" y1="5.976" xmlns="http://www.w3.org/2000/svg" y2="0.216" x1="14.03" stroke-width="0.432002" x2="15.8301"/>
<line stroke-linecap="round" stroke="#000000" class="other" y1="0.216" xmlns="http://www.w3.org/2000/svg" y2="5.976" x1="15.8301" stroke-width="0.432002" x2="17.6301"/>
<line stroke-linecap="round" stroke="#000000" class="other" y1="5.976" xmlns="http://www.w3.org/2000/svg" y2="0.216" x1="17.6301" stroke-width="0.432002" x2="19.4301"/>
<line stroke-linecap="round" stroke="#000000" class="other" y1="0.216" xmlns="http://www.w3.org/2000/svg" y2="5.976" x1="19.4301" stroke-width="0.432002" x2="21.2301"/>
<line stroke-linecap="round" stroke="#000000" class="other" y1="5.976" xmlns="http://www.w3.org/2000/svg" y2="3.096" x1="21.2301" stroke-width="0.432002" x2="21.9501"/>
<line stroke-linecap="round" stroke="#787878" id="connector1pin" class="pin" y1="3.096" xmlns="http://www.w3.org/2000/svg" y2="3.096" x1="29.1502" stroke-width="0.700001" connectorname="2" x2="21.9501"/>
<g width="0.000283466" x="29.1502" stroke="none" id="connector1terminal" y="3.096" class="terminal" height="0.000283465" fill="none" xmlns="http://www.w3.org/2000/svg" stroke-width="0"/>
<text font-family="'Droid Sans'" font-size="2.50001" stroke="none" x="25.5501" y="2.046" class="text" text-anchor="middle" fill="#8c8c8c" xmlns="http://www.w3.org/2000/svg" stroke-width="0">2</text>
<line stroke-linecap="round" stroke="#787878" id="connector0pin" class="pin" y1="3.096" xmlns="http://www.w3.org/2000/svg" y2="3.096" x1="0.350001" stroke-width="0.700001" connectorname="1" x2="7.55002"/>
<g width="0.000283466" x="0.350001" stroke="none" id="connector0terminal" y="3.096" class="terminal" height="0.000283465" fill="none" xmlns="http://www.w3.org/2000/svg" stroke-width="0"/>
<text font-family="'Droid Sans'" font-size="2.50001" stroke="none" x="3.95001" y="2.046" class="text" text-anchor="middle" fill="#8c8c8c" xmlns="http://www.w3.org/2000/svg" stroke-width="0">1</text>
</g>
</g></g></g><g partID='69280'><g transform='translate(10.2966,166.311)' ><g transform='matrix(0,1,-1,0,0,0)'  ><g id="schematic" xmlns="http://www.w3.org/2000/svg">
<line stroke-linecap="round" stroke="#000000" class="other" y1="3.096" xmlns="http://www.w3.org/2000/svg" y2="0.216" x1="7.55002" stroke-width="0.432002" x2="8.63003"/>
<line stroke-linecap="round" stroke="#000000" class="other" y1="0.216" xmlns="http://www.w3.org/2000/svg" y2="5.976" x1="8.63003" stroke-width="0.432002" x2="10.43"/>
<line stroke-linecap="round" stroke="#000000" class="other" y1="5.976" xmlns="http://www.w3.org/2000/svg" y2="0.216" x1="10.43" stroke-width="0.432002" x2="12.23"/>
<line stroke-linecap="round" stroke="#000000" class="other" y1="0.216" xmlns="http://www.w3.org/2000/svg" y2="5.976" x1="12.23" stroke-width="0.432002" x2="14.03"/>
<line stroke-linecap="round" stroke="#000000" class="other" y1="5.976" xmlns="http://www.w3.org/2000/svg" y2="0.216" x1="14.03" stroke-width="0.432002" x2="15.8301"/>
<line stroke-linecap="round" stroke="#000000" class="other" y1="0.216" xmlns="http://www.w3.org/2000/svg" y2="5.976" x1="15.8301" stroke-width="0.432002" x2="17.6301"/>
<line stroke-linecap="round" stroke="#000000" class="other" y1="5.976" xmlns="http://www.w3.org/2000/svg" y2="0.216" x1="17.6301" stroke-width="0.432002" x2="19.4301"/>
<line stroke-linecap="round" stroke="#000000" class="other" y1="0.216" xmlns="http://www.w3.org/2000/svg" y2="5.976" x1="19.4301" stroke-width="0.432002" x2="21.2301"/>
<line stroke-linecap="round" stroke="#000000" class="other" y1="5.976" xmlns="http://www.w3.org/2000/svg" y2="3.096" x1="21.2301" stroke-width="0.432002" x2="21.9501"/>
<line stroke-linecap="round" stroke="#787878" id="connector1pin" class="pin" y1="3.096" xmlns="http://www.w3.org/2000/svg" y2="3.096" x1="29.1502" stroke-width="0.700001" connectorname="2" x2="21.9501"/>
<g width="0.000283466" x="29.1502" stroke="none" id="connector1terminal" y="3.096" class="terminal" height="0.000283465" fill="none" xmlns="http://www.w3.org/2000/svg" stroke-width="0"/>
<text font-family="'Droid Sans'" font-size="2.50001" stroke="none" x="25.5501" y="2.046" class="text" text-anchor="middle" fill="#8c8c8c" xmlns="http://www.w3.org/2000/svg" stroke-width="0">2</text>
<line stroke-linecap="round" stroke="#787878" id="connector0pin" class="pin" y1="3.096" xmlns="http://www.w3.org/2000/svg" y2="3.096" x1="0.350001" stroke-width="0.700001" connectorname="1" x2="7.55002"/>
<g width="0.000283466" x="0.350001" stroke="none" id="connector0terminal" y="3.096" class="terminal" height="0.000283465" fill="none" xmlns="http://www.w3.org/2000/svg" stroke-width="0"/>
<text font-family="'Droid Sans'" font-size="2.50001" stroke="none" x="3.95001" y="2.046" class="text" text-anchor="middle" fill="#8c8c8c" xmlns="http://www.w3.org/2000/svg" stroke-width="0">1</text>
</g>
</g></g></g><g partID='69260'><g transform='translate(96.6966,79.9106)' ><g transform='matrix(0,1,-1,0,0,0)'  ><g id="schematic" xmlns="http://www.w3.org/2000/svg">
<line stroke-linecap="round" stroke="#000000" class="other" y1="3.096" xmlns="http://www.w3.org/2000/svg" y2="0.216" x1="7.55002" stroke-width="0.432002" x2="8.63003"/>
<line stroke-linecap="round" stroke="#000000" class="other" y1="0.216" xmlns="http://www.w3.org/2000/svg" y2="5.976" x1="8.63003" stroke-width="0.432002" x2="10.43"/>
<line stroke-linecap="round" stroke="#000000" class="other" y1="5.976" xmlns="http://www.w3.org/2000/svg" y2="0.216" x1="10.43" stroke-width="0.432002" x2="12.23"/>
<line stroke-linecap="round" stroke="#000000" class="other" y1="0.216" xmlns="http://www.w3.org/2000/svg" y2="5.976" x1="12.23" stroke-width="0.432002" x2="14.03"/>
<line stroke-linecap="round" stroke="#000000" class="other" y1="5.976" xmlns="http://www.w3.org/2000/svg" y2="0.216" x1="14.03" stroke-width="0.432002" x2="15.8301"/>
<line stroke-linecap="round" stroke="#000000" class="other" y1="0.216" xmlns="http://www.w3.org/2000/svg" y2="5.976" x1="15.8301" stroke-width="0.432002" x2="17.6301"/>
<line stroke-linecap="round" stroke="#000000" class="other" y1="5.976" xmlns="http://www.w3.org/2000/svg" y2="0.216" x1="17.6301" stroke-width="0.432002" x2="19.4301"/>
<line stroke-linecap="round" stroke="#000000" class="other" y1="0.216" xmlns="http://www.w3.org/2000/svg" y2="5.976" x1="19.4301" stroke-width="0.432002" x2="21.2301"/>
<line stroke-linecap="round" stroke="#000000" class="other" y1="5.976" xmlns="http://www.w3.org/2000/svg" y2="3.096" x1="21.2301" stroke-width="0.432002" x2="21.9501"/>
<line stroke-linecap="round" stroke="#787878" id="connector1pin" class="pin" y1="3.096" xmlns="http://www.w3.org/2000/svg" y2="3.096" x1="29.1502" stroke-width="0.700001" connectorname="2" x2="21.9501"/>
<g width="0.000283466" x="29.1502" stroke="none" id="connector1terminal" y="3.096" class="terminal" height="0.000283465" fill="none" xmlns="http://www.w3.org/2000/svg" stroke-width="0"/>
<text font-family="'Droid Sans'" font-size="2.50001" stroke="none" x="25.5501" y="2.046" class="text" text-anchor="middle" fill="#8c8c8c" xmlns="http://www.w3.org/2000/svg" stroke-width="0">2</text>
<line stroke-linecap="round" stroke="#787878" id="connector0pin" class="pin" y1="3.096" xmlns="http://www.w3.org/2000/svg" y2="3.096" x1="0.350001" stroke-width="0.700001" connectorname="1" x2="7.55002"/>
<g width="0.000283466" x="0.350001" stroke="none" id="connector0terminal" y="3.096" class="terminal" height="0.000283465" fill="none" xmlns="http://www.w3.org/2000/svg" stroke-width="0"/>
<text font-family="'Droid Sans'" font-size="2.50001" stroke="none" x="3.95001" y="2.046" class="text" text-anchor="middle" fill="#8c8c8c" xmlns="http://www.w3.org/2000/svg" stroke-width="0">1</text>
</g>
</g></g></g><g partID='26392110'><g transform='translate(86.4,158.984)' ><g id="schematic" xmlns="http://www.w3.org/2000/svg">
<path d="M7.201,7.575l0,-7.2" stroke-linecap="round" stroke="#787878" id="connector0pin" fill="none" xmlns="http://www.w3.org/2000/svg" stroke-width="0.75"/>
<g width="0.945" x="6.728" id="connector0terminal" y="0" fill="none" height="0.953" xmlns="http://www.w3.org/2000/svg"/>
<path d="M0.5,7.711L13.9,7.711" stroke-linecap="round" stroke="#000000" id="path4098" fill="none" xmlns="http://www.w3.org/2000/svg" stroke-width="0.9"/>
<path d="M2.732,10.456l8.935,0" stroke-linecap="round" stroke="#000000" id="path4100" fill="none" xmlns="http://www.w3.org/2000/svg" stroke-width="0.9"/>
<path d="M9.431,13.175L4.967,13.175" stroke-linecap="round" stroke="#000000" id="path4102" fill="none" xmlns="http://www.w3.org/2000/svg" stroke-width="0.9"/>
</g>
</g></g><g partID='26401510'><g transform='translate(64.8,158.984)' ><g id="schematic" xmlns="http://www.w3.org/2000/svg">
<path d="M7.201,7.575l0,-7.2" stroke-linecap="round" stroke="#787878" id="connector0pin" fill="none" xmlns="http://www.w3.org/2000/svg" stroke-width="0.75"/>
<g width="0.945" x="6.728" id="connector0terminal" y="0" fill="none" height="0.953" xmlns="http://www.w3.org/2000/svg"/>
<path d="M0.5,7.711L13.9,7.711" stroke-linecap="round" stroke="#000000" id="path4098" fill="none" xmlns="http://www.w3.org/2000/svg" stroke-width="0.9"/>
<path d="M2.732,10.456l8.935,0" stroke-linecap="round" stroke="#000000" id="path4100" fill="none" xmlns="http://www.w3.org/2000/svg" stroke-width="0.9"/>
<path d="M9.431,13.175L4.967,13.175" stroke-linecap="round" stroke="#000000" id="path4102" fill="none" xmlns="http://www.w3.org/2000/svg" stroke-width="0.9"/>
</g>
</g></g><g partID='26400240'><g transform='translate(14.4,144.584)' ><g id="schematic" xmlns="http://www.w3.org/2000/svg">
<path d="M7.201,7.575l0,-7.2" stroke-linecap="round" stroke="#787878" id="connector0pin" fill="none" xmlns="http://www.w3.org/2000/svg" stroke-width="0.75"/>
<g width="0.945" x="6.728" id="connector0terminal" y="0" fill="none" height="0.953" xmlns="http://www.w3.org/2000/svg"/>
<path d="M0.5,7.711L13.9,7.711" stroke-linecap="round" stroke="#000000" id="path4098" fill="none" xmlns="http://www.w3.org/2000/svg" stroke-width="0.9"/>
<path d="M2.732,10.456l8.935,0" stroke-linecap="round" stroke="#000000" id="path4100" fill="none" xmlns="http://www.w3.org/2000/svg" stroke-width="0.9"/>
<path d="M9.431,13.175L4.967,13.175" stroke-linecap="round" stroke="#000000" id="path4102" fill="none" xmlns="http://www.w3.org/2000/svg" stroke-width="0.9"/>
</g>
</g></g><g partID='26398970'><g transform='translate(0,194.984)' ><g id="schematic" xmlns="http://www.w3.org/2000/svg">
<path d="M7.201,7.575l0,-7.2" stroke-linecap="round" stroke="#787878" id="connector0pin" fill="none" xmlns="http://www.w3.org/2000/svg" stroke-width="0.75"/>
<g width="0.945" x="6.728" id="connector0terminal" y="0" fill="none" height="0.953" xmlns="http://www.w3.org/2000/svg"/>
<path d="M0.5,7.711L13.9,7.711" stroke-linecap="round" stroke="#000000" id="path4098" fill="none" xmlns="http://www.w3.org/2000/svg" stroke-width="0.9"/>
<path d="M2.732,10.456l8.935,0" stroke-linecap="round" stroke="#000000" id="path4100" fill="none" xmlns="http://www.w3.org/2000/svg" stroke-width="0.9"/>
<path d="M9.431,13.175L4.967,13.175" stroke-linecap="round" stroke="#000000" id="path4102" fill="none" xmlns="http://www.w3.org/2000/svg" stroke-width="0.9"/>
</g>
</g></g><g partID='26393800'><g transform='translate(115.2,101.384)' ><g id="schematic" xmlns="http://www.w3.org/2000/svg">
<path d="M7.201,7.575l0,-7.2" stroke-linecap="round" stroke="#787878" id="connector0pin" fill="none" xmlns="http://www.w3.org/2000/svg" stroke-width="0.75"/>
<g width="0.945" x="6.728" id="connector0terminal" y="0" fill="none" height="0.953" xmlns="http://www.w3.org/2000/svg"/>
<path d="M0.5,7.711L13.9,7.711" stroke-linecap="round" stroke="#000000" id="path4098" fill="none" xmlns="http://www.w3.org/2000/svg" stroke-width="0.9"/>
<path d="M2.732,10.456l8.935,0" stroke-linecap="round" stroke="#000000" id="path4100" fill="none" xmlns="http://www.w3.org/2000/svg" stroke-width="0.9"/>
<path d="M9.431,13.175L4.967,13.175" stroke-linecap="round" stroke="#000000" id="path4102" fill="none" xmlns="http://www.w3.org/2000/svg" stroke-width="0.9"/>
</g>
</g></g><g partID='26397230'><g transform='translate(11.1606,79.9106)' ><g transform='matrix(0,1,-1,0,0,0)'  ><g id="schematic" xmlns="http://www.w3.org/2000/svg">
<line stroke-linecap="round" stroke="#000000" class="other" y1="3.96" xmlns="http://www.w3.org/2000/svg" y2="3.96" x1="20.1501" stroke-width="0.720003" x2="21.9501"/>
<line stroke-linecap="round" stroke="#000000" class="other" y1="3.96" xmlns="http://www.w3.org/2000/svg" y2="0.36" x1="7.55002" stroke-width="0.720003" x2="20.1501"/>
<circle r="0.360001" stroke="#000000" class="other" fill="none" xmlns="http://www.w3.org/2000/svg" cx="7.55002" cy="3.96" stroke-width="1.152"/>
<circle r="0.360001" stroke="#000000" class="other" fill="none" xmlns="http://www.w3.org/2000/svg" cx="21.9501" cy="3.96" stroke-width="1.152"/>
<line stroke-linecap="round" stroke="#787878" id="connector0pin" class="pin" y1="3.96" xmlns="http://www.w3.org/2000/svg" y2="3.96" x1="0.350001" stroke-width="0.700001" connectorname="1" x2="7.55002"/>
<g width="0.000283466" x="0.350001" stroke="none" id="connector0terminal" y="3.96" class="terminal" height="0.000283465" fill="none" xmlns="http://www.w3.org/2000/svg" stroke-width="0"/>
<text font-family="'Droid Sans'" font-size="2.50001" stroke="none" x="3.95001" y="2.90999" class="text" text-anchor="middle" fill="#8c8c8c" xmlns="http://www.w3.org/2000/svg" stroke-width="0">1</text>
<line stroke-linecap="round" stroke="#787878" id="connector2pin" class="pin" y1="3.96" xmlns="http://www.w3.org/2000/svg" y2="3.96" x1="29.1502" stroke-width="0.700001" connectorname="2" x2="21.9501"/>
<g width="0.000283466" x="29.1502" stroke="none" id="connector2terminal" y="3.96" class="terminal" height="0.000283465" fill="none" xmlns="http://www.w3.org/2000/svg" stroke-width="0"/>
<text font-family="'Droid Sans'" font-size="2.50001" stroke="none" x="25.5501" y="2.90999" class="text" text-anchor="middle" fill="#8c8c8c" xmlns="http://www.w3.org/2000/svg" stroke-width="0">3</text>
</g>
</g></g></g><g partID='26399280'><g transform='translate(25.5606,79.9106)' ><g transform='matrix(0,1,-1,0,0,0)'  ><g id="schematic" xmlns="http://www.w3.org/2000/svg">
<line stroke-linecap="round" stroke="#000000" class="other" y1="3.96" xmlns="http://www.w3.org/2000/svg" y2="3.96" x1="20.1501" stroke-width="0.720003" x2="21.9501"/>
<line stroke-linecap="round" stroke="#000000" class="other" y1="3.96" xmlns="http://www.w3.org/2000/svg" y2="0.36" x1="7.55002" stroke-width="0.720003" x2="20.1501"/>
<circle r="0.360001" stroke="#000000" class="other" fill="none" xmlns="http://www.w3.org/2000/svg" cx="7.55002" cy="3.96" stroke-width="1.152"/>
<circle r="0.360001" stroke="#000000" class="other" fill="none" xmlns="http://www.w3.org/2000/svg" cx="21.9501" cy="3.96" stroke-width="1.152"/>
<line stroke-linecap="round" stroke="#787878" id="connector0pin" class="pin" y1="3.96" xmlns="http://www.w3.org/2000/svg" y2="3.96" x1="0.350001" stroke-width="0.700001" connectorname="1" x2="7.55002"/>
<g width="0.000283466" x="0.350001" stroke="none" id="connector0terminal" y="3.96" class="terminal" height="0.000283465" fill="none" xmlns="http://www.w3.org/2000/svg" stroke-width="0"/>
<text font-family="'Droid Sans'" font-size="2.50001" stroke="none" x="3.95001" y="2.90999" class="text" text-anchor="middle" fill="#8c8c8c" xmlns="http://www.w3.org/2000/svg" stroke-width="0">1</text>
<line stroke-linecap="round" stroke="#787878" id="connector2pin" class="pin" y1="3.96" xmlns="http://www.w3.org/2000/svg" y2="3.96" x1="29.1502" stroke-width="0.700001" connectorname="2" x2="21.9501"/>
<g width="0.000283466" x="29.1502" stroke="none" id="connector2terminal" y="3.96" class="terminal" height="0.000283465" fill="none" xmlns="http://www.w3.org/2000/svg" stroke-width="0"/>
<text font-family="'Droid Sans'" font-size="2.50001" stroke="none" x="25.5501" y="2.90999" class="text" text-anchor="middle" fill="#8c8c8c" xmlns="http://www.w3.org/2000/svg" stroke-width="0">3</text>
</g>
</g></g></g><g partID='26391230'><line stroke-linecap='round' stroke='#404040' x1='72.0005' y1='80.2608' x2='72.0005' y2='65.8608' stroke-width='0.699998' /></g><g partID='26391480'><line stroke-linecap='round' stroke='#404040' x1='72.0005' y1='130.66' x2='72.0005' y2='109.061' stroke-width='0.699998' /></g><g partID='26400930'><line stroke-linecap='round' stroke='#404040' x1='79.4672' y1='80.2608' x2='79.2005' y2='65.8608' stroke-width='0.699998' /></g><g partID='26391650'><line stroke-linecap='round' stroke='#404040' x1='93.6005' y1='80.2608' x2='79.4672' y2='80.2608' stroke-width='0.699998' /></g><g partID='26391720'><line stroke-linecap='round' stroke='#404040' x1='93.6005' y1='130.66' x2='93.6005' y2='109.061' stroke-width='0.699998' /></g><g partID='26392530'><line stroke-linecap='round' stroke='#404040' x1='93.6005' y1='159.461' x2='93.6005' y2='152.261' stroke-width='0.699998' /></g><g partID='26393240'><line stroke-linecap='round' stroke='#404040' x1='7.46717' y1='1.32742' x2='21.6005' y2='1.06075' stroke-width='0.699998' /></g><circle  fill="black" cx="21.6005" cy="1.06075" r="1.44" stroke-width="0" stroke="none" /><g partID='26393250'><line stroke-linecap='round' stroke='#404040' x1='7.2005' y1='80.2608' x2='7.46717' y2='1.32742' stroke-width='0.699998' /></g><g partID='26401910'><line stroke-linecap='round' stroke='#404040' x1='122.667' y1='80.2608' x2='122.401' y2='101.861' stroke-width='0.699998' /></g><g partID='26401720'><line stroke-linecap='round' stroke='#404040' x1='108.267' y1='80.2608' x2='122.667' y2='80.2608' stroke-width='0.699998' /></g><g partID='26393960'><line stroke-linecap='round' stroke='#404040' x1='108.001' y1='65.8608' x2='108.267' y2='80.2608' stroke-width='0.699998' /></g><g partID='26400130'><line stroke-linecap='round' stroke='#404040' x1='7.46717' y1='166.661' x2='7.2005' y2='109.061' stroke-width='0.699998' /></g><circle  fill="black" cx="7.2005" cy="109.061" r="1.44" stroke-width="0" stroke="none" /><g partID='26400000'><line stroke-linecap='round' stroke='#404040' x1='57.6005' y1='166.661' x2='7.46717' y2='166.661' stroke-width='0.699998' /></g><g partID='26397520'><line stroke-linecap='round' stroke='#404040' x1='57.6005' y1='65.8608' x2='57.6005' y2='166.661' stroke-width='0.699998' /></g><g partID='26398860'><line stroke-linecap='round' stroke='#404040' x1='7.2005' y1='109.061' x2='7.2005' y2='166.661' stroke-width='0.699998' /></g><circle  fill="black" cx="7.2005" cy="109.061" r="1.44" stroke-width="0" stroke="none" /><g partID='26398990'><line stroke-linecap='round' stroke='#404040' x1='7.2005' y1='195.461' x2='7.2005' y2='195.461' stroke-width='0.699998' /></g><g partID='26400580'><line stroke-linecap='round' stroke='#404040' x1='7.46717' y1='80.2608' x2='21.6005' y2='80.2608' stroke-width='0.699998' /></g><g partID='26400470'><line stroke-linecap='round' stroke='#404040' x1='7.46717' y1='1.32742' x2='7.46717' y2='80.2608' stroke-width='0.699998' /></g><g partID='26399300'><line stroke-linecap='round' stroke='#404040' x1='21.6005' y1='1.06075' x2='7.46717' y2='1.32742' stroke-width='0.699998' /></g><circle  fill="black" cx="21.6005" cy="1.06075" r="1.44" stroke-width="0" stroke="none" /><g partID='26399890'><line stroke-linecap='round' stroke='#404040' x1='50.6672' y1='109.061' x2='21.6005' y2='109.061' stroke-width='0.699998' /></g><circle  fill="black" cx="21.6005" cy="109.061" r="1.44" stroke-width="0" stroke="none" /><g partID='26399410'><line stroke-linecap='round' stroke='#404040' x1='50.4005' y1='65.8608' x2='50.6672' y2='109.061' stroke-width='0.699998' /></g><g partID='26399640'><line stroke-linecap='round' stroke='#404040' x1='21.6005' y1='109.061' x2='21.6005' y2='116.261' stroke-width='0.699998' /></g><circle  fill="black" cx="21.6005" cy="109.061" r="1.44" stroke-width="0" stroke="none" /><g partID='26400260'><line stroke-linecap='round' stroke='#404040' x1='21.6005' y1='145.061' x2='21.6005' y2='145.061' stroke-width='0.699998' /></g><g partID='26401530'><line stroke-linecap='round' stroke='#404040' x1='72.0005' y1='159.461' x2='72.0005' y2='152.261' stroke-width='0.699998' /></g><g partID='69260' id='partLabel'><g transform='translate(98.2173,88.8979)' ><g font-size='5' font-style='normal' font-weight='normal' fill='#000000' font-family="'DroidSans'" id='schematicLabel' fill-opacity='1' stroke='none' ><text x='0' y='3.75'>R2</text><text x='0' y='8.75'>2k&#x3a9;</text></g></g></g><g partID='69560' id='partLabel'><g transform='translate(76.6173,89.4313)' ><g font-size='5' font-style='normal' font-weight='normal' fill='#000000' font-family="'DroidSans'" id='schematicLabel' fill-opacity='1' stroke='none' ><text x='0' y='3.75'>R1</text><text x='0' y='8.75'>2k&#x3a9;</text></g></g></g><g partID='69380' id='partLabel'><g transform='translate(26.2173,124.898)' ><g font-size='5' font-style='normal' font-weight='normal' fill='#000000' font-family="'DroidSans'" id='schematicLabel' fill-opacity='1' stroke='none' ><text x='0' y='3.75'>R3</text><text x='0' y='8.75'>10k&#x3a9;</text></g></g></g><g partID='69280' id='partLabel'><g transform='translate(11.284,175.298)' ><g font-size='5' font-style='normal' font-weight='normal' fill='#000000' font-family="'DroidSans'" id='schematicLabel' fill-opacity='1' stroke='none' ><text x='0' y='3.75'>R4</text><text x='0' y='8.75'>10k&#x3a9;</text></g></g></g></svg>